<svg width="641" height="580" viewBox="0 0 641 580" fill="none" xmlns="http://www.w3.org/2000/svg">
<g filter="url(#filter0_d_1_18)">
<path d="M419.89 61.7425C428.796 59.2562 438.981 58.9078 448.158 64.2058C456.059 68.7673 460.745 76.123 463.334 83.7699C465.882 91.2949 466.709 99.9039 466.508 108.826C466.108 126.684 461.494 148.959 453.773 173.645C450.101 185.383 447.581 193.47 446.105 199.573C444.565 205.942 444.753 207.992 444.822 208.346C445.34 210.997 445.889 212.281 446.364 213.104C446.839 213.928 447.677 215.045 449.714 216.818C449.985 217.054 451.665 218.243 457.953 220.094C463.976 221.868 472.239 223.728 484.241 226.418C509.481 232.075 531.079 239.217 546.745 247.799C554.571 252.086 561.613 257.106 566.856 263.075C572.184 269.141 576.211 276.877 576.211 286C576.21 296.596 570.817 305.244 564.21 311.714C557.636 318.153 548.782 323.567 538.819 328.193C518.816 337.48 491.147 345.031 458.879 350.567C436.586 354.392 420.163 357.211 407.812 359.666C395.272 362.159 387.953 364.09 383.414 365.914C376.054 368.872 372.724 370.34 369.78 372.039C366.837 373.739 363.9 375.89 357.659 380.785C353.81 383.804 348.478 389.176 340.049 398.789C331.747 408.258 321.094 421.071 306.635 438.465C285.706 463.642 265.332 483.828 247.288 496.508C238.3 502.823 229.184 507.783 220.321 510.258C211.415 512.744 201.229 513.092 192.053 507.794C184.152 503.232 179.466 495.877 176.876 488.23C174.328 480.705 173.501 472.096 173.701 463.174C174.102 445.317 178.716 423.041 186.437 398.354C190.109 386.616 192.629 378.529 194.105 372.425C195.645 366.058 195.457 364.008 195.388 363.653C194.87 361.003 194.321 359.718 193.846 358.895C193.37 358.072 192.533 356.954 190.496 355.18C190.224 354.943 188.543 353.756 182.257 351.905C176.234 350.131 167.97 348.271 155.969 345.582C130.73 339.925 109.132 332.784 93.4671 324.202C85.6402 319.915 78.5979 314.894 73.355 308.925C68.0272 302.859 64.0003 295.124 64 286.001C64.0001 275.405 69.3942 266.757 76.0003 260.287C82.575 253.848 91.4281 248.434 101.391 243.808C121.394 234.521 149.063 226.968 181.33 221.432C203.624 217.607 220.047 214.788 232.398 212.333C244.938 209.84 252.257 207.909 256.796 206.085C264.156 203.127 267.486 201.66 270.43 199.96C273.373 198.261 276.309 196.11 282.55 191.215C286.4 188.196 291.732 182.823 300.161 173.21C308.463 163.741 319.116 150.928 333.575 133.534C354.504 108.357 374.878 88.1713 392.922 75.4917C401.91 69.176 411.026 64.2168 419.89 61.7425Z" fill="black"/>
</g>
<defs>
<filter id="filter0_d_1_18" x="0" y="4.09793e-07" width="640.211" height="580" filterUnits="userSpaceOnUse" color-interpolation-filters="sRGB">
<feFlood flood-opacity="0" result="BackgroundImageFix"/>
<feColorMatrix in="SourceAlpha" type="matrix" values="0 0 0 0 0 0 0 0 0 0 0 0 0 0 0 0 0 0 127 0" result="hardAlpha"/>
<feOffset dy="4"/>
<feGaussianBlur stdDeviation="32"/>
<feComposite in2="hardAlpha" operator="out"/>
<feColorMatrix type="matrix" values="0 0 0 0 0 0 0 0 0 0 0 0 0 0 0 0 0 0 0.64 0"/>
<feBlend mode="normal" in2="BackgroundImageFix" result="effect1_dropShadow_1_18"/>
<feBlend mode="normal" in="SourceGraphic" in2="effect1_dropShadow_1_18" result="shape"/>
</filter>
</defs>
</svg>
